#!OML:ASF F:\VICON\USERDATA\INSTALL\rory3\rory3.ASF
:FULLY-SPECIFIED
:DEGREES
1302
root 0.580052 18.839 4.30203 365.808 68.5049 -351.304
lowerback 6.9895 5.12342 3.24571
upperback 0.78581 7.03631 -1.87208
thorax -2.45745 3.48351 -4.34159
lowerneck -6.86874 9.04028 -1.02603
upperneck 34.3408 12.2752 8.71936
head 11.6712 6.97479 4.91152
rclavicle 9.01054e-015 5.26779e-015
rhumerus -37.1483 2.53926 -78.6549
rradius 37.0959
rwrist 14.8457
rhand -32.1771 7.14534
rfingers 7.12502
rthumb -5.41974 -22.7653
lclavicle 9.01054e-015 5.26779e-015
lhumerus -42.423 20.1852 66.3132
lradius 26.4815
lwrist -13.6669
lhand -27.5371 20.2735
lfingers 7.12502
lthumb -0.938877 50.2512
rfemur -2.01548 16.2894 16.5802
rtibia 21.1499
rfoot -17.9469 -20.7751
rtoes 3.02152
lfemur -10.5394 -13.7715 -2.91833
ltibia 17.8909
lfoot 3.84567 4.59835
ltoes 5.43861
1303
root 0.627228 18.8299 4.2594 365.65 68.086 -351.481
lowerback 7.03379 5.14315 3.16266
upperback 0.766937 7.05636 -1.92069
thorax -2.50352 3.49274 -4.35364
lowerneck -6.98651 9.20417 -1.0274
upperneck 34.5126 12.5175 8.74564
head 11.7473 7.08355 4.96733
rclavicle -7.11556e-014 1.94809e-014
rhumerus -37.2167 2.43377 -78.785
rradius 37.128
rwrist 14.5996
rhand -32.3095 6.94246
rfingers 7.12502
rthumb -5.54758 -22.9649
lclavicle -7.11556e-014 1.94809e-014
lhumerus -42.2726 19.8664 66.276
lradius 26.5686
lwrist -13.5186
lhand -27.8267 20.0228
lfingers 7.12502
lthumb -1.2185 49.9991
rfemur -2.04089 16.582 16.4084
rtibia 21.2219
rfoot -17.9761 -20.6633
rtoes 2.67388
lfemur -10.1062 -13.6629 -2.86127
ltibia 17.4811
lfoot 4.34432 3.52657
ltoes 2.56623
1304
root 0.674871 18.8207 4.21458 365.83 67.723 -351.303
lowerback 7.04535 5.12599 2.92239
upperback 0.765062 7.01405 -1.98938
thorax -2.53597 3.47317 -4.29134
lowerneck -7.10513 9.41943 -1.03608
upperneck 34.6946 12.8288 8.79825
head 11.8206 7.22491 5.04106
rclavicle -1.94592e-014 5.06901e-015
rhumerus -37.2605 2.27103 -78.9133
rradius 37.1102
rwrist 14.3703
rhand -32.4369 6.72226
rfingers 7.12502
rthumb -5.67055 -23.1819
lclavicle -1.94592e-014 5.06901e-015
lhumerus -42.1081 19.7298 66.1216
lradius 26.5973
lwrist -13.5353
lhand -28.1125 20.0791
lfingers 7.12502
lthumb -1.49456 50.0536
rfemur -2.07053 16.8344 16.0838
rtibia 21.2876
rfoot -17.9798 -20.5968
rtoes 2.333
lfemur -9.68534 -13.84 -2.94081
ltibia 17.0366
lfoot 4.68315 2.84768
ltoes -0.803958
1305
root 0.72254 18.8143 4.16598 365.788 67.3861 -351.352
lowerback 7.08083 5.09621 2.79166
upperback 0.769563 6.96405 -2.0441
thorax -2.56427 3.44897 -4.27612
lowerneck -7.2196 9.60031 -0.9066
upperneck 34.8803 13.1167 8.68378
head 11.9245 7.3495 5.03377
rclavicle -3.61897e-014 1.73937e-015
rhumerus -37.2807 2.0989 -79.0421
rradius 37.0556
rwrist 14.2385
rhand -32.4277 6.58989
rfingers 7.12502
rthumb -5.66166 -23.3145
lclavicle -3.61897e-014 1.73937e-015
lhumerus -41.9956 19.8568 65.7921
lradius 26.627
lwrist -13.8303
lhand -28.2819 20.0509
lfingers 7.12502
lthumb -1.65819 50.0242
rfemur -2.08443 17.1255 15.8423
rtibia 21.3346
rfoot -18.0663 -20.5127
rtoes 2.45609
lfemur -9.28891 -14.1982 -2.87358
ltibia 16.5892
lfoot 4.98953 2.40677
ltoes -2.3703
1306
root 0.772579 18.8088 4.11303 365.328 67.0267 -351.916
lowerback 7.0492 5.06271 2.8922
upperback 0.762662 6.92642 -2.02606
thorax -2.54762 3.42936 -4.30696
lowerneck -7.24148 9.75283 -0.892882
upperneck 34.9273 13.3819 8.53657
head 11.9477 7.44649 5.00908
rclavicle -2.41974e-014 2.81777e-014
rhumerus -37.2559 2.17862 -79.0944
rradius 36.9752
rwrist 14.0375
rhand -32.4873 6.55497
rfingers 7.12502
rthumb -5.71926 -23.3478
lclavicle -2.41974e-014 2.81777e-014
lhumerus -41.9091 20.0053 65.5392
lradius 26.6539
lwrist -14.0167
lhand -28.5392 19.8886
lfingers 7.12502
lthumb -1.90666 49.8598
rfemur -2.15394 17.3211 15.7685
rtibia 21.3164
rfoot -18.0835 -20.3276
rtoes 2.40461
lfemur -8.98457 -14.4214 -2.59631
ltibia 16.2019
lfoot 5.39289 1.6875
ltoes -4.38976
1307
root 0.824136 18.8035 4.06005 364.697 66.6749 -352.711
lowerback 6.95337 5.03315 3.06191
upperback 0.76235 6.89837 -1.97117
thorax -2.48411 3.41513 -4.33121
lowerneck -7.31608 9.9084 -0.934815
upperneck 34.9742 13.6367 8.46371
head 11.9701 7.54061 5.02237
rclavicle 2.66371e-014 8.54774e-015
rhumerus -37.1733 1.81207 -79.0442
rradius 36.7715
rwrist 14.2931
rhand -32.6184 6.6869
rfingers 7.12502
rthumb -5.84576 -23.2125
lclavicle 2.66371e-014 8.54774e-015
lhumerus -41.6744 19.9178 65.4795
lradius 26.6051
lwrist -13.8961
lhand -28.7321 19.8652
lfingers 7.12502
lthumb -2.09297 49.8347
rfemur -2.21754 17.5304 15.8227
rtibia 21.2396
rfoot -17.9524 -20.2929
rtoes 1.98466
lfemur -8.73755 -14.5686 -2.19711
ltibia 15.8848
lfoot 5.7308 1.01304
ltoes -5.64566
1308
root 0.873545 18.7984 4.00958 364.099 66.3226 -353.47
lowerback 6.89089 5.02924 3.18195
upperback 0.744089 6.90059 -1.9519
thorax -2.45636 3.41534 -4.37178
lowerneck -7.43546 10.0398 -0.79646
upperneck 35.097 13.842 8.35609
head 12.0566 7.62866 5.00457
rclavicle -1.27673e-014 5.15598e-015
rhumerus -37.1524 1.50376 -79.0563
rradius 36.6273
rwrist 14.3903
rhand -32.6948 6.7804
rfingers 7.12502
rthumb -5.91955 -23.1169
lclavicle -1.27673e-014 5.15598e-015
lhumerus -41.4162 19.9056 65.2754
lradius 26.5379
lwrist -14.0949
lhand -28.6763 19.6925
lfingers 7.12502
lthumb -2.03907 49.6625
rfemur -2.2728 17.851 15.894
rtibia 21.1507
rfoot -17.8053 -20.3532
rtoes 1.80428
lfemur -8.51151 -14.759 -1.7813
ltibia 15.6005
lfoot 5.94302 0.414189
ltoes -5.17273
1309
root 0.922096 18.7921 3.95765 363.892 65.9517 -353.767
lowerback 6.90677 5.05426 3.12742
upperback 0.721248 6.92927 -1.99021
thorax -2.48778 3.42889 -4.38649
lowerneck -7.5274 10.1684 -0.740827
upperneck 35.192 14.0386 8.31438
head 12.1128 7.71271 5.01664
rclavicle 1.2087e-013 -2.09345e-014
rhumerus -37.2177 1.21303 -79.0962
rradius 36.5296
rwrist 14.4115
rhand -32.7253 6.5999
rfingers 7.12502
rthumb -5.94905 -23.2966
lclavicle 1.2087e-013 -2.09345e-014
lhumerus -41.2234 19.9698 64.9704
lradius 26.5191
lwrist -14.5056
lhand -28.7342 19.5577
lfingers 7.12502
lthumb -2.09505 49.5271
rfemur -2.33308 18.1305 15.7391
rtibia 21.1002
rfoot -17.7158 -20.2825
rtoes 1.62284
lfemur -8.25666 -14.9905 -1.60209
ltibia 15.2966
lfoot 6.15888 -0.267066
ltoes -4.42313
1310
root 0.974349 18.7846 3.90199 363.863 65.5904 -353.78
lowerback 6.93224 5.10093 2.99613
upperback 0.764167 6.98141 -2.05181
thorax -2.46038 3.45806 -4.38136
lowerneck -7.63825 10.2809 -0.795115
upperneck 35.2451 14.2118 8.32404
head 12.141 7.77978 5.05811
rclavicle 3.99122e-015 -1.30949e-014
rhumerus -37.1952 0.906514 -79.0398
rradius 36.3566
rwrist 14.3005
rhand -32.5933 6.66193
rfingers 7.12502
rthumb -5.82156 -23.2381
lclavicle 3.99122e-015 -1.30949e-014
lhumerus -40.932 19.8684 64.8134
lradius 26.5018
lwrist -14.7465
lhand -29.0396 19.7758
lfingers 7.12502
lthumb -2.38992 49.7422
rfemur -2.32715 18.3104 15.4584
rtibia 21.1251
rfoot -17.6844 -20.131
rtoes 1.20862
lfemur -7.8421 -15.3312 -1.60401
ltibia 14.8989
lfoot 6.38053 -0.619335
ltoes -3.64454
1311
root 1.02948 18.7766 3.83981 363.755 65.2156 -353.878
lowerback 6.91175 5.14649 2.95234
upperback 0.844933 7.03829 -2.09786
thorax -2.35936 3.49153 -4.40085
lowerneck -7.72077 10.3684 -0.809987
upperneck 35.2314 14.3697 8.21719
head 12.1526 7.82916 5.04234
rclavicle 6.05672e-016 4.62174e-015
rhumerus -37.1761 0.445714 -78.9214
rradius 36.1876
rwrist 14.3894
rhand -32.6031 7.13982
rfingers 7.12502
rthumb -5.83101 -22.7599
lclavicle 6.05672e-016 4.62174e-015
lhumerus -40.5515 19.6404 64.8382
lradius 26.4932
lwrist -14.7633
lhand -29.4108 20.0317
lfingers 7.12502
lthumb -2.74847 49.9937
rfemur -2.36891 18.2724 15.16
rtibia 21.2
rfoot -17.5901 -19.8296
rtoes 0.662856
lfemur -7.3664 -15.6744 -1.61566
ltibia 14.4357
lfoot 6.55629 -0.527549
ltoes -3.13166
1312
root 1.08714 18.7684 3.77632 363.841 64.8143 -353.82
lowerback 6.87553 5.18353 2.7981
upperback 0.880024 7.07499 -2.13935
thorax -2.31279 3.51324 -4.3552
lowerneck -7.74805 10.4625 -0.844374
upperneck 35.222 14.5395 8.1201
head 12.1514 7.88427 5.02963
rclavicle -4.19684e-014 -1.72446e-014
rhumerus -37.1765 0.287894 -78.8674
rradius 35.9865
rwrist 14.4392
rhand -32.6033 7.32836
rfingers 7.12502
rthumb -5.8312 -22.5714
lclavicle -4.19684e-014 -1.72446e-014
lhumerus -40.3022 19.4033 64.8737
lradius 26.6001
lwrist -14.5701
lhand -29.5936 20.0176
lfingers 7.12502
lthumb -2.92503 49.9773
rfemur -2.46131 18.2249 14.7584
rtibia 21.25
rfoot -17.4321 -19.5212
rtoes -0.110422
lfemur -6.98661 -15.9362 -1.73405
ltibia 14.0573
lfoot 6.70248 -0.400911
ltoes -3.37932
1313
root 1.14586 18.76 3.71226 363.88 64.4418 -353.843
lowerback 6.865 5.20221 2.639
upperback 0.850534 7.08681 -2.17772
thorax -2.35075 3.51893 -4.3093
lowerneck -7.73942 10.5423 -0.812968
upperneck 35.291 14.6721 8.06961
head 12.1793 7.9379 5.0254
rclavicle 8.89375e-014 -2.26615e-014
rhumerus -37.2935 0.492112 -78.9318
rradius 35.8528
rwrist 14.1455
rhand -32.1213 7.17866
rfingers 7.12502
rthumb -5.36589 -22.7334
lclavicle 8.89375e-014 -2.26615e-014
lhumerus -40.2111 19.3419 64.6895
lradius 26.7417
lwrist -14.5193
lhand -29.4973 19.7553
lfingers 7.12502
lthumb -2.83202 49.7163
rfemur -2.5274 18.4253 14.4253
rtibia 21.2574
rfoot -17.3811 -19.3971
rtoes -0.724739
lfemur -6.68425 -16.2171 -1.79989
ltibia 13.7769
lfoot 6.70512 -0.456747
ltoes -4.49348
1314
root 1.203 18.7494 3.64071 363.399 64.1244 -354.462
lowerback 6.90713 5.19403 2.82736
upperback 0.795979 7.08994 -2.17714
thorax -2.40764 3.51622 -4.42028
lowerneck -7.79259 10.6167 -0.740299
upperneck 35.3907 14.7863 8.03161
head 12.2365 7.9881 5.02672
rclavicle 9.28511e-014 -2.51463e-014
rhumerus -37.4148 0.777147 -78.9861
rradius 35.7322
rwrist 13.708
rhand -31.9189 6.85709
rfingers 7.12502
rthumb -5.17043 -23.0598
lclavicle 9.28511e-014 -2.51463e-014
lhumerus -40.0896 19.2821 64.4952
lradius 26.8661
lwrist -14.439
lhand -29.7795 19.6921
lfingers 7.12502
lthumb -3.10447 49.6493
rfemur -2.60554 18.6382 14.3597
rtibia 21.2186
rfoot -17.4272 -19.3335
rtoes -1.15128
lfemur -6.45864 -16.4569 -1.56951
ltibia 13.5423
lfoot 6.57012 -0.646226
ltoes -6.65441
1315
root 1.26254 18.7369 3.56873 362.88 63.8075 -355.088
lowerback 6.95188 5.1586 3.02212
upperback 0.769436 7.05788 -2.17652
thorax -2.4396 3.497 -4.5308
lowerneck -7.83615 10.741 -0.772474
upperneck 35.4273 14.957 8.08077
head 12.2424 8.06241 5.07127
rclavicle 6.93945e-014 1.98785e-016
rhumerus -37.4139 0.646498 -78.9387
rradius 35.4723
rwrist 13.8481
rhand -32.0119 6.70354
rfingers 7.12502
rthumb -5.26025 -23.2112
lclavicle 6.93945e-014 1.98785e-016
lhumerus -39.9707 19.1493 64.3588
lradius 27.0347
lwrist -14.188
lhand -30.3954 19.6423
lfingers 7.12502
lthumb -3.69932 49.5899
rfemur -2.6116 18.7757 14.3064
rtibia 21.1145
rfoot -17.3941 -19.2586
rtoes -1.8244
lfemur -6.22863 -16.6874 -1.36507
ltibia 13.388
lfoot 6.28158 -0.725557
ltoes -8.67042
